<?xml version="1.0" encoding="UTF-8" standalone="no"?>
<!DOCTYPE svg PUBLIC "-//W3C//DTD SVG 1.1//EN" "http://www.w3.org/Graphics/SVG/1.1/DTD/svg11.dtd">
<svg version="1.1" xmlns="http://www.w3.org/2000/svg" xmlns:xlink="http://www.w3.org/1999/xlink"
     preserveAspectRatio="xMidYMid meet" viewBox="0 0 640 640" width="640" height="640">
    <defs>
        <path d="M230.67 495.3L209.69 446.84L185.6 467.78L161.5 488.73L206.57 516.25L251.65 543.77L230.67 495.3Z"
              id="dX82LQdK7"></path>
        <path d="" id="c19TpmP4ua"></path>
        <path d="M341.3 60.86L351.77 61.93L362.12 63.41L372.34 65.29L382.42 67.57L392.34 70.23L402.11 73.28L411.71 76.69L421.13 80.46L430.37 84.59L439.42 89.06L448.26 93.87L456.89 99.01L465.31 104.46L473.5 110.23L481.46 116.3L489.17 122.66L496.63 129.31L503.83 136.23L510.76 143.43L517.41 150.88L523.78 158.59L529.85 166.54L535.62 174.73L541.08 183.14L546.22 191.77L551.04 200.61L555.51 209.65L559.64 218.89L563.42 228.31L566.84 237.9L569.88 247.67L572.55 257.59L574.83 267.66L576.71 277.88L578.19 288.23L579.26 298.71L579.91 309.3L580.13 320L579.91 330.7L579.26 341.29L578.19 351.77L576.72 362.12L574.83 372.34L572.56 382.41L569.89 392.33L566.85 402.1L563.44 411.69L559.66 421.11L555.53 430.35L551.06 439.39L546.25 448.23L541.12 456.86L535.66 465.27L529.9 473.46L523.83 481.41L517.47 489.12L510.82 496.57L503.89 503.77L496.7 510.69L489.24 517.34L481.53 523.7L473.58 529.77L465.4 535.54L456.98 540.99L448.35 546.13L439.51 550.94L430.47 555.41L421.24 559.54L411.82 563.31L402.22 566.72L392.46 569.77L382.53 572.43L372.46 574.71L362.25 576.59L351.9 578.07L341.42 579.14L330.83 579.78L320.12 580L319.25 580L314.06 579.93L308.89 579.76L303.74 579.49L298.61 579.12L293.5 578.66L288.41 578.09L283.34 577.43L278.29 576.67L273.27 575.81L268.28 574.85L263.31 573.8L258.37 572.65L253.45 571.41L248.57 570.08L243.72 568.64L238.91 567.12L234.12 565.5L229.37 563.79L224.66 561.99L219.98 560.09L215.35 558.11L210.75 556.03L206.19 553.86L201.67 551.61L197.2 549.26L192.77 546.82L188.39 544.3L184.05 541.68L179.76 538.98L175.51 536.2L171.32 533.32L167.18 530.36L163.09 527.31L159.05 524.18L155.07 520.96L151.14 517.66L147.27 514.28L143.45 510.81L139.7 507.26L136 503.63L132.37 499.91L128.82 496.14L125.35 492.31L121.97 488.42L118.67 484.48L115.45 480.48L112.32 476.43L109.28 472.32L106.32 468.17L103.45 463.96L100.67 459.71L97.98 455.41L95.37 451.06L92.85 446.67L90.42 442.23L88.08 437.75L85.83 433.22L83.67 428.66L81.6 424.05L79.63 419.41L77.74 414.72L75.95 410L74.25 405.25L72.64 400.46L71.13 395.63L69.71 390.78L68.38 385.89L67.16 380.97L66.02 376.03L64.98 371.05L64.04 366.05L63.2 361.02L62.45 355.97L61.81 350.89L61.26 345.79L60.81 340.67L60.45 335.53L60.2 330.37L60.05 325.19L60 320L60.05 314.81L60.2 309.63L60.45 304.47L60.8 299.33L61.26 294.21L61.81 289.11L62.45 284.03L63.2 278.98L64.04 273.95L64.98 268.95L66.02 263.97L67.15 259.03L68.38 254.11L69.7 249.22L71.12 244.37L72.63 239.54L74.24 234.75L75.94 230L77.73 225.28L79.61 220.59L81.58 215.95L83.65 211.34L85.81 206.78L88.05 202.25L90.39 197.77L92.82 193.33L95.33 188.94L97.93 184.59L100.62 180.29L103.4 176.04L106.27 171.83L109.22 167.68L112.25 163.57L115.38 159.52L118.58 155.52L121.87 151.58L125.25 147.69L128.71 143.86L132.25 140.09L135.88 136.38L139.58 132.74L143.34 129.19L147.17 125.72L151.04 122.34L154.98 119.04L158.97 115.82L163.01 112.69L167.1 109.64L171.25 106.68L175.44 103.8L179.69 101.02L183.98 98.32L188.32 95.7L192.7 93.18L197.13 90.74L201.6 88.4L206.12 86.14L210.67 83.97L215.27 81.89L219.91 79.91L224.58 78.01L229.29 76.21L234.04 74.5L238.82 72.88L243.63 71.36L248.48 69.92L253.36 68.59L258.26 67.35L263.2 66.2L268.17 65.15L273.16 64.19L278.18 63.34L283.22 62.57L288.29 61.91L293.38 61.34L298.49 60.88L303.62 60.51L308.77 60.24L313.94 60.07L319.13 60L320 60L330.7 60.22L341.3 60.86ZM299.63 449.16L298.2 449.25L296.76 449.35L295.33 449.45L293.9 449.55L292.46 449.66L291.03 449.78L289.6 449.9L288.16 450.03L286.73 450.17L285.3 450.31L283.87 450.45L282.44 450.61L281.01 450.76L279.58 450.93L278.15 451.1L276.73 451.27L275.3 451.45L273.88 451.64L272.45 451.83L271.03 452.03L269.6 452.24L268.18 452.45L266.76 452.66L265.34 452.89L263.93 453.11L262.51 453.35L261.09 453.59L259.68 453.83L258.27 454.09L256.86 454.34L255.45 454.61L254.04 454.88L252.63 455.15L251.23 455.44L249.82 455.72L248.42 456.02L247.02 456.32L245.63 456.63L246.72 459.77L247.85 462.88L248.99 465.94L250.16 468.95L251.35 471.93L252.56 474.85L253.79 477.73L255.04 480.56L256.32 483.34L257.61 486.07L258.91 488.75L260.24 491.39L261.59 493.97L262.95 496.49L264.32 498.97L265.72 501.39L267.13 503.75L268.55 506.06L269.99 508.32L271.44 510.52L272.9 512.65L274.38 514.73L275.87 516.76L277.37 518.72L278.88 520.62L280.4 522.45L281.93 524.23L283.47 525.94L285.02 527.59L286.58 529.17L288.15 530.69L289.72 532.14L291.3 533.52L292.89 534.83L294.48 536.08L296.07 537.26L297.68 538.36L299.28 539.4L300.89 540.36L302.5 541.25L302.5 449L301.07 449.08L299.63 449.16ZM339.09 539.85L340.68 538.88L342.27 537.84L343.85 536.73L345.43 535.55L347.01 534.3L348.58 532.98L350.14 531.59L351.7 530.14L353.25 528.62L354.79 527.04L356.33 525.39L357.85 523.68L359.37 521.91L360.88 520.07L362.38 518.18L363.86 516.22L365.34 514.21L366.8 512.13L368.25 510L369.69 507.81L371.11 505.56L372.52 503.26L373.91 500.91L375.29 498.5L376.66 496.03L378 493.52L379.33 490.95L380.64 488.33L381.94 485.66L383.21 482.94L384.47 480.17L385.7 477.36L386.92 474.5L388.11 471.59L389.29 468.63L390.44 465.63L391.56 462.59L392.67 459.5L393.75 456.37L392.37 456.08L390.99 455.79L389.61 455.5L388.22 455.22L386.84 454.95L385.45 454.68L384.06 454.41L382.67 454.16L381.28 453.9L379.88 453.66L378.48 453.42L377.09 453.18L375.69 452.95L374.29 452.73L372.89 452.51L371.48 452.3L370.08 452.09L368.67 451.89L367.27 451.69L365.86 451.5L364.45 451.32L363.04 451.14L361.63 450.96L360.22 450.8L358.8 450.63L357.39 450.48L355.97 450.33L354.56 450.18L353.14 450.04L351.72 449.91L350.3 449.78L348.88 449.66L347.46 449.54L346.04 449.43L344.62 449.32L343.2 449.22L341.77 449.13L340.35 449.04L338.92 448.95L337.5 448.87L337.5 540.75L339.09 539.85ZM425.53 469.49L424.84 471.46L424.14 473.42L423.44 475.36L422.72 477.29L422 479.2L421.27 481.11L420.53 482.99L419.78 484.86L419.03 486.72L418.26 488.56L417.49 490.39L416.71 492.2L415.92 494L415.13 495.78L414.32 497.55L413.51 499.3L412.69 501.03L411.86 502.75L411.02 504.45L410.18 506.14L409.33 507.81L408.47 509.47L407.6 511.1L406.73 512.72L405.85 514.33L404.96 515.92L404.06 517.49L403.16 519.04L402.25 520.58L401.34 522.1L400.41 523.6L399.48 525.09L398.54 526.56L397.6 528.01L396.65 529.44L395.69 530.85L394.72 532.25L393.75 533.63L395.99 532.84L398.21 532.02L400.43 531.19L402.64 530.33L404.84 529.44L407.03 528.54L409.21 527.61L411.38 526.66L413.53 525.69L415.68 524.69L417.82 523.67L419.95 522.63L422.06 521.57L424.17 520.49L426.26 519.38L428.34 518.26L430.41 517.11L432.47 515.94L434.51 514.74L436.55 513.53L438.57 512.3L440.58 511.04L442.57 509.77L444.56 508.47L446.52 507.15L448.48 505.82L450.42 504.46L452.35 503.08L454.27 501.68L456.17 500.26L458.06 498.82L459.93 497.37L461.79 495.89L463.63 494.39L465.46 492.87L467.27 491.34L469.07 489.78L470.86 488.21L472.62 486.61L474.38 485L473.23 484.43L472.08 483.86L470.93 483.3L469.78 482.74L468.62 482.19L467.46 481.64L466.3 481.09L465.14 480.55L463.97 480.01L462.8 479.47L461.63 478.94L460.46 478.42L459.29 477.9L458.11 477.38L456.93 476.86L455.75 476.35L454.56 475.85L453.38 475.35L452.19 474.85L451 474.36L449.81 473.87L448.62 473.39L447.42 472.91L446.22 472.44L445.02 471.97L443.82 471.5L442.62 471.04L441.42 470.59L440.21 470.14L439.01 469.69L437.8 469.25L436.59 468.81L435.38 468.38L434.17 467.95L432.96 467.53L431.74 467.12L430.53 466.7L429.31 466.3L428.09 465.9L426.88 465.5L426.2 467.5L425.53 469.49ZM210.21 466.42L209 466.83L207.8 467.24L206.6 467.65L205.39 468.07L204.2 468.49L203 468.92L201.8 469.36L200.61 469.79L199.41 470.23L198.22 470.68L197.03 471.13L195.84 471.59L194.66 472.05L193.47 472.51L192.29 472.98L191.11 473.45L189.93 473.93L188.75 474.41L187.57 474.89L186.4 475.38L185.23 475.87L184.06 476.37L182.89 476.87L181.73 477.38L180.56 477.89L179.4 478.4L178.24 478.92L177.08 479.44L175.93 479.97L174.77 480.5L173.62 481.03L172.47 481.57L171.33 482.11L170.18 482.66L169.04 483.2L167.9 483.76L166.76 484.31L165.63 484.88L167.37 486.49L169.12 488.08L170.89 489.65L172.68 491.2L174.48 492.74L176.3 494.25L178.13 495.74L179.97 497.22L181.82 498.67L183.7 500.1L185.58 501.51L187.48 502.9L189.39 504.27L191.31 505.63L193.25 506.96L195.2 508.27L197.16 509.55L199.14 510.82L201.12 512.07L203.13 513.3L205.14 514.5L207.16 515.69L209.2 516.85L211.25 518L213.31 519.12L215.38 520.22L217.46 521.3L219.55 522.36L221.66 523.39L223.77 524.41L225.9 525.4L228.04 526.38L230.18 527.33L232.34 528.26L234.51 529.16L236.69 530.05L238.88 530.91L241.08 531.76L243.28 532.58L245.5 533.38L244.54 532L243.58 530.6L242.63 529.19L241.69 527.76L240.75 526.32L239.83 524.85L238.9 523.37L237.99 521.88L237.08 520.36L236.18 518.83L235.29 517.29L234.4 515.72L233.52 514.15L232.65 512.55L231.78 510.94L230.92 509.31L230.07 507.67L229.23 506.01L228.39 504.33L227.56 502.64L226.74 500.93L225.93 499.21L225.12 497.47L224.32 495.72L223.53 493.95L222.75 492.17L221.97 490.37L221.21 488.55L220.45 486.72L219.7 484.88L218.95 483.02L218.22 481.14L217.49 479.25L216.77 477.35L216.06 475.43L215.35 473.5L214.66 471.55L213.97 469.59L213.29 467.61L212.63 465.63L211.42 466.02L210.21 466.42ZM448.16 340L448.06 342.49L447.95 344.98L447.82 347.47L447.69 349.94L447.54 352.42L447.38 354.88L447.22 357.34L447.04 359.79L446.85 362.24L446.64 364.68L446.43 367.12L446.21 369.55L445.97 371.97L445.73 374.39L445.47 376.8L445.2 379.2L444.92 381.6L444.63 383.99L444.33 386.38L444.02 388.75L443.69 391.12L443.36 393.49L443.01 395.85L442.66 398.2L442.29 400.54L441.91 402.88L441.52 405.21L441.12 407.53L440.71 409.85L440.29 412.16L439.85 414.46L439.41 416.76L438.96 419.05L438.49 421.33L438.01 423.6L437.53 425.87L437.03 428.13L436.52 430.38L436 432.62L437.6 433.14L439.2 433.67L440.8 434.2L442.39 434.74L443.99 435.29L445.58 435.85L447.16 436.41L448.75 436.98L450.33 437.55L451.91 438.13L453.49 438.72L455.07 439.32L456.64 439.92L458.21 440.53L459.78 441.15L461.34 441.78L462.9 442.41L464.47 443.05L466.02 443.69L467.58 444.34L469.13 445L470.68 445.67L472.23 446.34L473.77 447.03L475.32 447.71L476.85 448.41L478.39 449.11L479.93 449.82L481.46 450.53L482.99 451.26L484.51 451.99L486.04 452.73L487.56 453.47L489.07 454.22L490.59 454.98L492.1 455.74L493.61 456.52L495.12 457.3L496.62 458.08L498.13 458.88L500.18 456.22L502.18 453.54L504.15 450.84L506.07 448.11L507.94 445.36L509.78 442.59L511.56 439.79L513.31 436.98L515.01 434.14L516.67 431.28L518.28 428.4L519.85 425.5L521.37 422.58L522.85 419.64L524.29 416.68L525.68 413.7L527.02 410.71L528.32 407.69L529.57 404.66L530.78 401.61L531.94 398.54L533.06 395.46L534.13 392.36L535.16 389.24L536.14 386.11L537.07 382.96L537.96 379.8L538.8 376.62L539.6 373.43L540.35 370.23L541.05 367.01L541.71 363.78L542.31 360.53L542.87 357.28L543.39 354.01L543.86 350.73L544.28 347.44L544.65 344.14L544.97 340.82L545.25 337.5L448.25 337.5L448.16 340ZM95.03 340.82L95.35 344.14L95.73 347.44L96.15 350.73L96.62 354.01L97.13 357.28L97.7 360.53L98.31 363.78L98.96 367.01L99.67 370.23L100.42 373.43L101.22 376.62L102.06 379.8L102.95 382.96L103.89 386.1L104.87 389.23L105.9 392.35L106.97 395.45L108.09 398.53L109.25 401.59L110.46 404.64L111.71 407.67L113.01 410.68L114.35 413.68L115.74 416.65L117.17 419.61L118.64 422.54L120.16 425.46L121.73 428.35L123.33 431.23L124.98 434.08L126.67 436.91L128.41 439.72L130.19 442.51L132.01 445.28L133.87 448.02L135.78 450.74L137.73 453.43L139.72 456.1L141.75 458.75L143.23 457.97L144.72 457.21L146.21 456.44L147.7 455.69L149.2 454.94L150.7 454.19L152.2 453.45L153.7 452.72L155.21 452L156.72 451.28L158.23 450.56L159.75 449.86L161.27 449.16L162.79 448.46L164.32 447.78L165.85 447.1L167.38 446.42L168.91 445.75L170.45 445.09L171.98 444.44L173.53 443.79L175.07 443.15L176.62 442.51L178.16 441.88L179.72 441.26L181.27 440.65L182.82 440.04L184.38 439.44L185.94 438.84L187.51 438.25L189.07 437.67L190.64 437.1L192.21 436.53L193.78 435.97L195.35 435.42L196.93 434.87L198.51 434.33L200.09 433.8L201.67 433.27L203.25 432.75L202.73 430.51L202.22 428.25L201.72 425.99L201.24 423.72L200.76 421.45L200.29 419.17L199.84 416.87L199.4 414.58L198.96 412.27L198.54 409.96L198.13 407.64L197.73 405.31L197.34 402.97L196.96 400.63L196.59 398.28L196.24 395.93L195.89 393.57L195.56 391.2L195.23 388.82L194.92 386.44L194.62 384.05L194.33 381.65L194.05 379.25L193.78 376.84L193.52 374.43L193.28 372.01L193.04 369.58L192.82 367.15L192.61 364.71L192.4 362.26L192.21 359.81L192.03 357.35L191.87 354.89L191.71 352.42L191.56 349.95L191.43 347.47L191.3 344.99L191.19 342.5L191.09 340L191 337.5L94.75 337.5L95.03 340.82ZM225.33 339.78L225.42 342.06L225.52 344.34L225.63 346.6L225.75 348.87L225.88 351.12L226.03 353.37L226.18 355.61L226.34 357.85L226.51 360.08L226.69 362.31L226.89 364.52L227.09 366.74L227.3 368.94L227.52 371.14L227.75 373.33L228 375.52L228.25 377.7L228.51 379.87L228.78 382.03L229.06 384.19L229.35 386.34L229.66 388.48L229.97 390.62L230.29 392.75L230.62 394.87L230.96 396.98L231.31 399.09L231.67 401.19L232.04 403.28L232.41 405.36L232.8 407.44L233.2 409.5L233.61 411.56L234.02 413.61L234.45 415.66L234.89 417.69L235.33 419.72L235.79 421.74L236.25 423.75L237.88 423.39L239.52 423.03L241.15 422.68L242.79 422.34L244.43 422.01L246.07 421.68L247.71 421.36L249.36 421.05L251 420.75L252.65 420.45L254.3 420.16L255.95 419.87L257.6 419.6L259.25 419.33L260.9 419.06L262.56 418.81L264.21 418.56L265.87 418.32L267.53 418.09L269.19 417.86L270.85 417.64L272.51 417.43L274.17 417.22L275.83 417.03L277.5 416.84L279.16 416.65L280.82 416.48L282.49 416.31L284.15 416.15L285.82 416L287.49 415.85L289.15 415.71L290.82 415.58L292.49 415.46L294.16 415.34L295.83 415.23L297.49 415.13L299.16 415.04L300.83 414.95L302.5 414.88L302.5 337.5L225.25 337.5L225.33 339.78ZM337.5 414.88L339.16 414.95L340.82 415.04L342.48 415.13L344.13 415.23L345.79 415.34L347.45 415.45L349.1 415.57L350.76 415.7L352.41 415.84L354.06 415.98L355.72 416.13L357.37 416.28L359.02 416.45L360.67 416.62L362.32 416.8L363.97 416.98L365.61 417.18L367.26 417.38L368.9 417.58L370.55 417.8L372.19 418.02L373.83 418.25L375.47 418.48L377.11 418.73L378.75 418.98L380.38 419.24L382.02 419.5L383.65 419.77L385.28 420.05L386.91 420.34L388.54 420.64L390.17 420.94L391.79 421.25L393.42 421.57L395.04 421.89L396.66 422.22L398.28 422.56L399.9 422.91L401.51 423.26L403.13 423.63L403.59 421.62L404.04 419.61L404.49 417.59L404.92 415.57L405.35 413.53L405.77 411.49L406.18 409.43L406.57 407.37L406.96 405.3L407.34 403.22L407.71 401.14L408.07 399.04L408.42 396.94L408.76 394.83L409.09 392.72L409.41 390.59L409.72 388.46L410.02 386.32L410.31 384.17L410.59 382.02L410.87 379.85L411.13 377.68L411.38 375.51L411.62 373.32L411.85 371.13L412.08 368.94L412.29 366.73L412.49 364.52L412.68 362.3L412.86 360.08L413.04 357.85L413.2 355.61L413.35 353.37L413.49 351.12L413.62 348.87L413.74 346.6L413.85 344.34L413.95 342.06L414.04 339.78L414.13 337.5L337.5 337.5L337.5 414.88ZM235.33 220.15L234.89 222.18L234.45 224.22L234.02 226.26L233.61 228.31L233.2 230.37L232.8 232.44L232.41 234.52L232.04 236.6L231.67 238.69L231.31 240.79L230.96 242.9L230.62 245.01L230.29 247.14L229.97 249.27L229.66 251.4L229.35 253.55L229.06 255.7L228.78 257.86L228.51 260.03L228.25 262.2L228 264.38L227.75 266.57L227.52 268.77L227.3 270.97L227.09 273.18L226.89 275.39L226.69 277.62L226.51 279.85L226.34 282.08L226.18 284.33L226.03 286.57L225.88 288.83L225.75 291.09L225.63 293.36L225.52 295.64L225.42 297.92L225.33 300.21L225.25 302.5L302.5 302.5L302.5 225L300.82 224.92L299.15 224.84L297.47 224.74L295.8 224.64L294.12 224.53L292.45 224.42L290.78 224.29L289.11 224.16L287.44 224.02L285.77 223.88L284.1 223.72L282.43 223.56L280.77 223.4L279.1 223.22L277.44 223.04L275.78 222.85L274.12 222.65L272.46 222.45L270.8 222.23L269.14 222.02L267.48 221.79L265.83 221.56L264.17 221.32L262.52 221.07L260.87 220.81L259.22 220.55L257.57 220.28L255.92 220L254.28 219.72L252.63 219.43L250.99 219.13L249.34 218.82L247.7 218.51L246.06 218.19L244.42 217.86L242.79 217.53L241.15 217.19L239.52 216.84L237.88 216.49L236.25 216.13L235.79 218.14L235.33 220.15ZM495.12 182.58L493.61 183.36L492.1 184.13L490.59 184.9L489.07 185.65L487.56 186.41L486.04 187.15L484.51 187.89L482.99 188.62L481.46 189.34L479.93 190.06L478.39 190.77L476.85 191.47L475.32 192.16L473.77 192.85L472.23 193.53L470.68 194.2L469.13 194.87L467.58 195.53L466.02 196.18L464.47 196.83L462.9 197.47L461.34 198.1L459.78 198.72L458.21 199.34L456.64 199.95L455.07 200.56L453.49 201.15L451.91 201.74L450.33 202.32L448.75 202.9L447.16 203.47L445.58 204.03L443.99 204.58L442.39 205.13L440.8 205.67L439.2 206.2L437.6 206.73L436 207.25L436.52 209.5L437.03 211.76L437.53 214.03L438.01 216.31L438.49 218.59L438.96 220.88L439.41 223.17L439.85 225.47L440.29 227.78L440.71 230.1L441.12 232.42L441.52 234.75L441.91 237.08L442.29 239.42L442.66 241.77L443.01 244.13L443.36 246.49L443.69 248.85L444.02 251.23L444.33 253.61L444.63 256L444.92 258.39L445.2 260.79L445.47 263.19L445.73 265.61L445.97 268.02L446.21 270.45L446.43 272.88L446.64 275.31L446.85 277.76L447.04 280.2L447.22 282.66L447.38 285.12L447.54 287.58L447.69 290.06L447.82 292.53L447.95 295.02L448.06 297.51L448.16 300L448.25 302.5L545.25 302.5L544.97 299.17L544.65 295.85L544.27 292.54L543.85 289.24L543.38 285.95L542.87 282.67L542.3 279.41L541.69 276.16L541.03 272.92L540.33 269.7L539.58 266.49L538.78 263.29L537.94 260.11L537.04 256.95L536.11 253.8L535.12 250.66L534.09 247.54L533.02 244.44L531.9 241.35L530.73 238.28L529.52 235.23L528.27 232.19L526.97 229.18L525.62 226.18L524.23 223.2L522.8 220.24L521.32 217.3L519.79 214.38L518.23 211.48L516.62 208.6L514.96 205.74L513.26 202.9L511.52 200.08L509.74 197.29L507.91 194.52L506.04 191.77L504.12 189.04L502.17 186.34L500.17 183.66L498.13 181L496.62 181.79L495.12 182.58ZM399.91 216.95L398.31 217.29L396.69 217.62L395.08 217.95L393.47 218.27L391.85 218.58L390.23 218.89L388.61 219.19L386.98 219.48L385.36 219.77L383.73 220.05L382.1 220.32L380.47 220.58L378.83 220.84L377.2 221.09L375.56 221.34L373.92 221.58L372.28 221.81L370.64 222.03L369 222.25L367.35 222.46L365.7 222.66L364.06 222.86L362.41 223.04L360.75 223.23L359.1 223.4L357.45 223.57L355.79 223.73L354.13 223.88L352.48 224.02L350.82 224.16L349.16 224.29L347.49 224.42L345.83 224.53L344.17 224.64L342.5 224.74L340.84 224.84L339.17 224.92L337.5 225L337.5 302.5L414.13 302.5L414.04 300.21L413.95 297.92L413.85 295.64L413.74 293.37L413.62 291.1L413.49 288.84L413.35 286.58L413.2 284.34L413.04 282.1L412.86 279.87L412.68 277.64L412.49 275.42L412.29 273.21L412.08 271L411.85 268.8L411.62 266.61L411.38 264.43L411.13 262.25L410.87 260.08L410.59 257.92L410.31 255.77L410.02 253.62L409.72 251.48L409.41 249.35L409.09 247.22L408.76 245.1L408.42 242.99L408.07 240.89L407.71 238.79L407.34 236.71L406.96 234.62L406.57 232.55L406.18 230.49L405.77 228.43L405.35 226.38L404.92 224.34L404.49 222.3L404.04 220.28L403.59 218.26L403.13 216.25L401.52 216.6L399.91 216.95ZM137.83 186.46L135.88 189.16L133.96 191.89L132.09 194.64L130.27 197.41L128.48 200.21L126.74 203.02L125.04 205.86L123.39 208.72L121.78 211.6L120.21 214.5L118.69 217.42L117.21 220.35L115.78 223.31L114.39 226.29L113.04 229.28L111.74 232.3L110.49 235.33L109.28 238.38L108.12 241.44L107 244.52L105.93 247.62L104.9 250.73L103.92 253.86L102.99 257L102.1 260.16L101.26 263.33L100.47 266.52L99.72 269.72L99.02 272.93L98.37 276.16L97.77 279.39L97.21 282.64L96.7 285.91L96.24 289.18L95.82 292.46L95.46 295.76L95.14 299.06L94.87 302.38L191.12 302.38L191.21 299.87L191.3 297.38L191.4 294.89L191.52 292.4L191.65 289.93L191.79 287.45L191.94 284.98L192.1 282.52L192.27 280.06L192.46 277.61L192.66 275.17L192.87 272.73L193.09 270.3L193.32 267.87L193.56 265.45L193.82 263.03L194.08 260.62L194.36 258.22L194.65 255.83L194.95 253.44L195.27 251.05L195.59 248.68L195.93 246.31L196.27 243.95L196.63 241.59L197 239.24L197.38 236.9L197.78 234.57L198.18 232.24L198.6 229.92L199.02 227.6L199.46 225.3L199.91 223L200.37 220.71L200.84 218.43L201.33 216.15L201.82 213.88L202.33 211.62L202.85 209.37L203.38 207.13L201.79 206.62L200.21 206.1L198.63 205.57L197.05 205.04L195.48 204.5L193.9 203.95L192.33 203.4L190.76 202.84L189.2 202.27L187.63 201.69L186.07 201.11L184.51 200.52L182.95 199.92L181.39 199.31L179.84 198.7L178.29 198.08L176.74 197.45L175.19 196.82L173.65 196.18L172.11 195.53L170.57 194.88L169.03 194.21L167.5 193.55L165.97 192.87L164.44 192.19L162.92 191.5L161.4 190.8L159.88 190.1L158.36 189.39L156.85 188.67L155.33 187.94L153.83 187.21L152.32 186.48L150.82 185.73L149.32 184.98L147.83 184.22L146.33 183.46L144.84 182.69L143.36 181.91L141.87 181.13L139.83 183.78L137.83 186.46ZM338.92 190.92L340.35 190.84L341.77 190.75L343.2 190.66L344.62 190.55L346.04 190.45L347.46 190.34L348.88 190.22L350.3 190.1L351.72 189.97L353.14 189.83L354.56 189.7L355.97 189.55L357.39 189.4L358.8 189.24L360.22 189.08L361.63 188.91L363.04 188.74L364.45 188.56L365.86 188.38L367.27 188.18L368.67 187.99L370.08 187.79L371.48 187.58L372.89 187.37L374.29 187.15L375.69 186.92L377.09 186.69L378.48 186.46L379.88 186.22L381.28 185.97L382.67 185.72L384.06 185.46L385.45 185.2L386.84 184.93L388.22 184.66L389.61 184.37L390.99 184.09L392.37 183.8L393.75 183.5L392.67 180.38L391.56 177.3L390.44 174.27L389.29 171.28L388.11 168.33L386.92 165.43L385.7 162.57L384.47 159.76L383.21 157L381.94 154.29L380.64 151.62L379.33 149.01L378 146.44L376.66 143.93L375.29 141.47L373.91 139.07L372.52 136.71L371.11 134.41L369.69 132.17L368.25 129.98L366.8 127.85L365.34 125.78L363.86 123.77L362.38 121.81L360.88 119.92L359.37 118.09L357.85 116.31L356.33 114.61L354.79 112.96L353.25 111.38L351.7 109.86L350.14 108.41L348.58 107.02L347.01 105.7L345.43 104.45L343.85 103.27L342.27 102.16L340.68 101.12L339.09 100.15L337.5 99.25L337.5 191L338.92 190.92ZM299.3 100.6L297.7 101.64L296.1 102.74L294.51 103.91L292.93 105.16L291.35 106.47L289.77 107.85L288.2 109.3L286.63 110.81L285.08 112.39L283.53 114.03L281.99 115.74L280.46 117.51L278.93 119.34L277.42 121.24L275.92 123.2L274.43 125.21L272.95 127.29L271.48 129.42L270.03 131.61L268.59 133.86L267.16 136.17L265.75 138.53L264.36 140.95L262.98 143.42L261.61 145.94L260.26 148.52L258.93 151.14L257.62 153.82L256.33 156.55L255.06 159.33L253.8 162.16L252.57 165.03L251.36 167.96L250.16 170.92L248.99 173.94L247.85 177L246.72 180.1L245.63 183.25L247.02 183.56L248.42 183.86L249.82 184.15L251.22 184.44L252.63 184.72L254.03 185L255.44 185.27L256.84 185.53L258.25 185.79L259.66 186.04L261.07 186.29L262.49 186.53L263.9 186.76L265.31 186.99L266.73 187.21L268.15 187.43L269.57 187.64L270.99 187.84L272.41 188.04L273.83 188.23L275.25 188.42L276.68 188.6L278.1 188.78L279.53 188.95L280.96 189.11L282.38 189.27L283.81 189.42L285.25 189.57L286.68 189.71L288.11 189.84L289.55 189.97L290.98 190.09L292.42 190.21L293.85 190.32L295.29 190.43L296.73 190.53L298.17 190.62L299.61 190.71L301.06 190.8L302.5 190.88L302.5 98.75L300.9 99.64L299.3 100.6ZM395.56 109.15L396.52 110.56L397.47 112L398.42 113.44L399.35 114.91L400.29 116.4L401.21 117.9L402.13 119.42L403.04 120.96L403.94 122.51L404.84 124.08L405.72 125.67L406.61 127.28L407.48 128.9L408.35 130.54L409.2 132.19L410.05 133.86L410.9 135.55L411.73 137.25L412.56 138.97L413.38 140.7L414.2 142.45L415 144.22L415.8 146L416.59 147.8L417.37 149.61L418.14 151.44L418.9 153.28L419.66 155.14L420.41 157.01L421.15 158.9L421.88 160.8L422.6 162.71L423.31 164.64L424.02 166.59L424.71 168.54L425.4 170.51L426.08 172.5L426.75 174.5L427.97 174.1L429.18 173.7L430.4 173.3L431.61 172.89L432.83 172.47L434.04 172.05L435.25 171.63L436.45 171.2L437.66 170.77L438.87 170.33L440.07 169.89L441.27 169.44L442.47 168.99L443.67 168.53L444.87 168.07L446.06 167.61L447.26 167.14L448.45 166.66L449.64 166.19L450.83 165.7L452.02 165.22L453.2 164.72L454.39 164.23L455.57 163.73L456.75 163.22L457.93 162.71L459.11 162.2L460.28 161.68L461.45 161.16L462.63 160.63L463.8 160.1L464.97 159.56L466.13 159.02L467.3 158.48L468.46 157.93L469.62 157.38L470.78 156.82L471.94 156.26L473.1 155.69L474.25 155.13L472.5 153.5L470.73 151.9L468.95 150.32L467.15 148.75L465.34 147.21L463.51 145.69L461.67 144.18L459.82 142.7L457.95 141.23L456.06 139.79L454.16 138.37L452.25 136.96L450.33 135.58L448.39 134.22L446.43 132.88L444.47 131.56L442.49 130.26L440.49 128.98L438.49 127.72L436.47 126.48L434.44 125.27L432.39 124.08L430.34 122.9L428.27 121.75L426.19 120.62L424.1 119.52L421.99 118.43L419.88 117.37L417.75 116.33L415.61 115.31L413.46 114.31L411.3 113.34L409.13 112.39L406.94 111.46L404.75 110.56L402.54 109.67L400.33 108.81L398.11 107.98L395.87 107.16L393.63 106.38L394.6 107.75L395.56 109.15ZM241.08 108.33L238.88 109.16L236.69 110.01L234.51 110.88L232.34 111.78L230.19 112.7L228.04 113.64L225.9 114.61L223.78 115.59L221.66 116.6L219.56 117.63L217.46 118.69L215.38 119.76L213.31 120.86L211.25 121.98L209.21 123.12L207.17 124.28L205.15 125.47L203.14 126.67L201.14 127.9L199.16 129.15L197.19 130.42L195.23 131.71L193.28 133.02L191.35 134.35L189.43 135.7L187.52 137.08L185.63 138.47L183.75 139.88L181.88 141.32L180.03 142.77L178.2 144.25L176.37 145.74L174.57 147.26L172.77 148.79L170.99 150.35L169.23 151.92L167.48 153.51L165.75 155.13L166.89 155.69L168.02 156.24L169.16 156.8L170.31 157.34L171.45 157.89L172.6 158.43L173.75 158.97L174.9 159.5L176.05 160.03L177.21 160.56L178.36 161.08L179.52 161.6L180.68 162.11L181.84 162.62L183.01 163.13L184.18 163.63L185.34 164.13L186.51 164.62L187.69 165.11L188.86 165.59L190.03 166.07L191.21 166.55L192.39 167.02L193.57 167.49L194.75 167.95L195.93 168.41L197.12 168.87L198.3 169.32L199.49 169.77L200.68 170.21L201.87 170.64L203.06 171.08L204.25 171.51L205.44 171.93L206.64 172.35L207.83 172.76L209.03 173.17L210.23 173.58L211.43 173.98L212.63 174.38L213.29 172.39L213.97 170.43L214.66 168.47L215.35 166.53L216.06 164.6L216.77 162.69L217.49 160.79L218.22 158.91L218.95 157.03L219.7 155.18L220.45 153.34L221.21 151.51L221.97 149.69L222.75 147.9L223.53 146.11L224.32 144.34L225.12 142.59L225.93 140.85L226.74 139.13L227.56 137.42L228.39 135.73L229.23 134.06L230.07 132.4L230.92 130.75L231.78 129.12L232.65 127.51L233.52 125.92L234.4 124.34L235.29 122.78L236.18 121.24L237.08 119.71L237.99 118.2L238.9 116.71L239.83 115.23L240.75 113.77L241.69 112.33L242.63 110.91L243.58 109.51L244.54 108.12L245.5 106.75L243.28 107.53L241.08 108.33Z"
              id="cv6q0uZpM"></path>
    </defs>
    <g>
        <g>

            <g>
                <use xlink:href="#c19TpmP4ua" opacity="1" fill="#e59f53" fill-opacity="1"></use>
                <g>
                    <use xlink:href="#c19TpmP4ua" opacity="1" fill-opacity="0" stroke="#686868" stroke-width="1"
                         stroke-opacity="1"></use>
                </g>
            </g>
            <g>
                <use xlink:href="#cv6q0uZpM" opacity="1" fill="#686868" fill-opacity="1"></use>
                <g>
                    <use xlink:href="#cv6q0uZpM" opacity="1" fill-opacity="0" stroke="#686868" stroke-width="1"
                         stroke-opacity="0"></use>
                </g>
            </g>
        </g>
    </g>
</svg>
